{
    "asset" : {
        "generator" : "Khronos glTF Blender I/O v3.2.43",
        "version" : "2.0"
    },
    "scene" : 0,
    "scenes" : [
        {
            "name" : "Scene",
            "nodes" : [
                0
            ]
        }
    ],
    "nodes" : [
        {
            "mesh" : 0,
            "name" : "colmftr1co_001",
            "scale" : [
                0.02539999969303608,
                0.02539999969303608,
                0.02539999969303608
            ],
            "translation" : [
                4.786529461853206e-05,
                4.780838966369629,
                0
            ]
        }
    ],
    "materials" : [
        {
            "doubleSided" : true,
            "name" : "01 - Default1",
            "pbrMetallicRoughness" : {
                "roughnessFactor" : 0.858578622341156
            }
        },
        {
            "doubleSided" : true,
            "name" : "<Gray6>",
            "pbrMetallicRoughness" : {
                "baseColorFactor" : [
                    0.658823549747467,
                    0.658823549747467,
                    0.658823549747467,
                    1
                ],
                "roughnessFactor" : 0.858578622341156
            }
        }
    ],
    "meshes" : [
        {
            "name" : "Mesh",
            "primitives" : [
                {
                    "attributes" : {
                        "POSITION" : 0,
                        "NORMAL" : 1,
                        "TEXCOORD_0" : 2,
                        "TEXCOORD_1" : 3
                    },
                    "indices" : 4,
                    "material" : 0
                },
                {
                    "attributes" : {
                        "POSITION" : 5,
                        "NORMAL" : 6,
                        "TEXCOORD_0" : 7,
                        "TEXCOORD_1" : 8
                    },
                    "indices" : 9,
                    "material" : 1
                }
            ]
        }
    ],
    "accessors" : [
        {
            "bufferView" : 0,
            "componentType" : 5126,
            "count" : 1722,
            "max" : [
                96.06787872314453,
                -76.62104797363281,
                165.4246063232422
            ],
            "min" : [
                -96.07164764404297,
                -188.2220001220703,
                -165.42459106445312
            ],
            "type" : "VEC3"
        },
        {
            "bufferView" : 1,
            "componentType" : 5126,
            "count" : 1722,
            "type" : "VEC3"
        },
        {
            "bufferView" : 2,
            "componentType" : 5126,
            "count" : 1722,
            "type" : "VEC2"
        },
        {
            "bufferView" : 3,
            "componentType" : 5126,
            "count" : 1722,
            "type" : "VEC2"
        },
        {
            "bufferView" : 4,
            "componentType" : 5123,
            "count" : 4851,
            "type" : "SCALAR"
        },
        {
            "bufferView" : 5,
            "componentType" : 5126,
            "count" : 849,
            "max" : [
                93.90413665771484,
                -76.62104797363281,
                129.72225952148438
            ],
            "min" : [
                -93.90792083740234,
                -186.2088623046875,
                -165.42459106445312
            ],
            "type" : "VEC3"
        },
        {
            "bufferView" : 6,
            "componentType" : 5126,
            "count" : 849,
            "type" : "VEC3"
        },
        {
            "bufferView" : 7,
            "componentType" : 5126,
            "count" : 849,
            "type" : "VEC2"
        },
        {
            "bufferView" : 8,
            "componentType" : 5126,
            "count" : 849,
            "type" : "VEC2"
        },
        {
            "bufferView" : 9,
            "componentType" : 5123,
            "count" : 1704,
            "type" : "SCALAR"
        }
    ],
    "bufferViews" : [
        {
            "buffer" : 0,
            "byteLength" : 20664,
            "byteOffset" : 0
        },
        {
            "buffer" : 0,
            "byteLength" : 20664,
            "byteOffset" : 20664
        },
        {
            "buffer" : 0,
            "byteLength" : 13776,
            "byteOffset" : 41328
        },
        {
            "buffer" : 0,
            "byteLength" : 13776,
            "byteOffset" : 55104
        },
        {
            "buffer" : 0,
            "byteLength" : 9702,
            "byteOffset" : 68880
        },
        {
            "buffer" : 0,
            "byteLength" : 10188,
            "byteOffset" : 78584
        },
        {
            "buffer" : 0,
            "byteLength" : 10188,
            "byteOffset" : 88772
        },
        {
            "buffer" : 0,
            "byteLength" : 6792,
            "byteOffset" : 98960
        },
        {
            "buffer" : 0,
            "byteLength" : 6792,
            "byteOffset" : 105752
        },
        {
            "buffer" : 0,
            "byteLength" : 3408,
            "byteOffset" : 112544
        }
    ],
    "buffers" : [
        {
            "byteLength" : 115952,
            "uri" : "data:application/octet-stream;base64,"
        }
    ]
}
